<svg t="1521210450320" className="icon" style="" viewBox="0 0 1024 1024" version="1.1" xmlns="http://www.w3.org/2000/svg" p-id="3651" xmlns:xlink="http://www.w3.org/1999/xlink" width="200" height="200"><defs><style type="text/css"></style></defs><path d="M874.666667 1024 149.333333 1024 149.333333 149.333333l725.333333 0L874.666667 1024zM192 981.333333l640 0L832 192 192 192 192 981.333333z" p-id="3652"></path><path d="M746.666667 192 277.333333 192 277.333333 21.333333l469.333333 0L746.666667 192zM320 149.333333l384 0L704 64 320 64 320 149.333333z" p-id="3653"></path><path d="M341.333333 874.666667c-11.797333 0-21.333333-9.536-21.333333-21.333333L320 320c0-11.797333 9.536-21.333333 21.333333-21.333333s21.333333 9.536 21.333333 21.333333l0 533.333333C362.666667 865.130667 353.130667 874.666667 341.333333 874.666667z" p-id="3654"></path><path d="M512 874.666667c-11.797333 0-21.333333-9.536-21.333333-21.333333L490.666667 320c0-11.797333 9.536-21.333333 21.333333-21.333333s21.333333 9.536 21.333333 21.333333l0 533.333333C533.333333 865.130667 523.797333 874.666667 512 874.666667z" p-id="3655"></path><path d="M682.666667 874.666667c-11.797333 0-21.333333-9.536-21.333333-21.333333L661.333333 320c0-11.797333 9.536-21.333333 21.333333-21.333333s21.333333 9.536 21.333333 21.333333l0 533.333333C704 865.130667 694.464 874.666667 682.666667 874.666667z" p-id="3656"></path><path d="M0 149.333333l1024 0 0 42.666667-1024 0 0-42.666667Z" p-id="3657"></path></svg>
            