<svg t="1521206922276" class="icon" style="" viewBox="0 0 1024 1024" version="1.1" xmlns="http://www.w3.org/2000/svg" p-id="1040" xmlns:xlink="http://www.w3.org/1999/xlink" width="200" height="200"><defs><style type="text/css"></style></defs><path d="M818.101583 925.098479c-3.335978-55.504128-25.357528-98.994642-67.333548-132.937708-35.099403-28.386514-79.377862-45.864584-118.437459-61.285808-47.716768-18.839067-89.099271-35.181267-101.583606-63.833841-1.944282-23.12672-1.780553-41.075511-1.596358-61.736063 0.020466-3.14155 0.051165-6.334265 0.071631-9.598612 10.161431-10.151197 18.839067-25.347295 24.917506-37.841863 5.525853-11.348466 14.541181-32.295544 19.084661-56.107879 6.65149-3.417843 12.760628-8.544607 17.918092-15.124466 10.171664-12.975523 16.782222-31.650861 19.647479-55.504128 2.670829-22.236444-3.796466-39.356356-12.719696-50.622958 5.720282-19.432585 13.814634-52.03512 16.771989-88.925309 4.14439-51.676963-3.356444-93.325525-22.287609-123.809817-17.539468-28.233018-44.104497-46.007847-79.050404-52.925397-19.279089-24.354688-56.189743-37.626969-105.441471-37.626969-0.122797 0-0.245593 0-0.378623 0.010233-75.120908 1.37123-130.092917 24.334221-163.401534 68.223824-39.46892 52.004421-46.806026 130.809231-21.85782 234.378052-9.209756 11.266601-15.994276 28.621874-13.262048 51.29834 2.865257 23.853267 9.475815 42.528606 19.637246 55.504128 5.177929 6.600325 11.307533 11.737322 17.97949 15.155165 6.989181 35.314297 26.258037 75.100442 45.025473 93.847411 0.020466 3.213181 0.040932 6.364965 0.071631 9.455349 0.173962 20.732184 0.337691 38.742373-1.616824 61.950957-12.484336 28.64234-54.0408 44.98454-101.951997 63.833841-39.20286 15.421224-83.645049 32.889061-118.877481 61.275575-42.139749 33.943067-64.243163 77.43358-67.579141 132.937708-0.337691 5.638417 1.667989 11.154038 5.525853 15.267728 3.868097 4.103458 9.260921 6.426363 14.899338 6.426363l775.389806 0c5.64865 0 11.031241-2.322905 14.899338-6.426363C816.433594 936.242284 818.439274 930.726663 818.101583 925.098479zM45.321208 905.85009c6.231935-33.370015 22.369473-59.730383 49.79408-81.823564 30.351262-24.457018 69.912279-40.011272 108.173698-55.064107 55.903218-21.980617 108.705817-42.753733 126.275985-89.989547 0.63445-1.708921 1.033539-3.489474 1.197268-5.300726 2.40477-26.657126 2.230808-47.194882 2.046612-68.929906-0.051165-6.037507-0.102331-12.279674-0.102331-18.798135 0-7.511067-4.113691-14.408151-10.69355-17.97949-7.797593-5.505387-32.489972-45.465494-36.59343-83.931574-1.043772-9.782807-8.892531-17.437138-18.685571-18.235316-2.599198-0.214894-13.088086-7.541767-16.935718-39.550785-1.974981-16.403598 6.01704-22.205745 6.068206-22.236444 7.695263-4.696975 11.409864-13.886265 9.148357-22.615067-12.023848-46.25344-17.34504-87.390349-15.820314-122.274858 1.606591-36.910655 10.918677-66.832128 27.690666-88.925309 25.316595-33.359782 69.51319-50.868551 131.361817-52.045353 38.189787 0.030699 66.412572 9.578146 75.509764 25.551956 3.14155 5.51562 8.667404 9.271154 14.960737 10.140964 27.250644 3.786233 46.570665 15.410991 59.065234 35.529191 31.333636 50.438763 13.20065 143.610792-2.455935 190.713576-3.00852 9.05626 0.593518 18.961864 8.749268 23.914666 0.081864 0.061398 8.043187 5.832845 6.078439 22.246677-3.847631 32.009018-14.33652 39.33589-16.935718 39.550785-9.79304 0.798179-17.641799 8.452509-18.685571 18.225083-4.134157 38.670741-28.028357 78.497818-35.570123 83.962274-6.54916 3.591805-10.632151 10.468422-10.632151 17.959024 0 6.590092-0.061398 12.893658-0.112564 18.992563-0.194428 21.683858-0.378623 42.149982 2.026146 68.735477 0.163729 1.811252 0.562818 3.591805 1.197268 5.300726 17.559934 47.215348 70.168106 67.988464 125.856429 89.969081 38.09769 15.042601 77.505211 30.596855 107.733677 55.04364 27.322275 22.103414 43.388183 48.463782 49.599651 81.864496L45.321208 905.85009 45.321208 905.85009zM1016.612753 829.900304c-3.868097 4.103458-9.250688 6.426363-14.889105 6.426363l-125.528971 0c-11.2973 0-20.466124-9.15859-20.466124-20.466124 0-11.2973 9.168824-20.466124 20.466124-20.466124l102.177124 0c-5.577019-25.53149-18.532075-45.946448-39.83731-63.168692-25.060769-20.271696-58.011228-33.277918-89.887216-45.844118-47.583738-18.777669-92.53758-36.521798-107.836007-77.628008-0.644683-1.708921-1.043772-3.499707-1.207501-5.310959-2.026146-22.563902-1.87265-39.878243-1.708921-58.205657 0.040932-5.136997 0.092098-10.447956 0.092098-15.994276 0-7.398504 3.990894-14.20349 10.396791-17.825994 6.866385-5.54632 25.306362-38.066991 28.560476-68.336388 1.033539-9.670244 8.739035-17.263176 18.409279-18.184151 1.862417-0.685615 8.841366-7.531534 11.604292-30.504758 1.330298-11.082406-3.325745-15.277962-3.806699-15.687284-8.022721-4.993734-11.583826-14.83794-8.606005-23.822568 13.006222-39.151695 28.151154-116.452245 2.415003-157.87568-9.987468-16.07614-25.511024-25.377994-47.450708-28.437679-6.293333-0.86981-11.819187-4.625344-14.960737-10.151197-6.958482-12.228509-30.228465-19.831674-60.753689-19.862373-12.208043 0.23536-23.720238 1.238201-34.229592 2.988054-11.143805 1.852184-21.694091-5.679349-23.546276-16.833387-1.852184-11.143805 5.679349-21.694091 16.833387-23.546276 12.525268-2.087545 26.114774-3.27458 40.379663-3.530406 0.122797-0.010233 0.245593-0.010233 0.36839-0.010233 41.894156 0 73.545016 11.266601 90.603531 31.968086 29.757744 6.160303 52.454676 21.550829 67.527976 45.813419 35.344996 56.895825 15.677051 144.634098 5.423523 180.173522 7.480368 10.079566 12.688997 24.845874 10.447956 43.695175-2.496867 20.701484-8.299013 36.96182-17.263176 48.361451-4.287653 5.464455-9.312086 9.803273-14.797008 12.873192-5.802146 27.936259-20.466124 61.234643-36.665061 78.211293-0.010233 2.333138-0.030699 4.625344-0.051165 6.876618-0.153496 17.150612-0.286526 32.070416 1.279133 51.155077 10.355859 22.655999 45.956681 36.705993 83.573417 51.554166 33.114189 13.06762 70.64906 27.874861 100.590999 52.086285 36.102243 29.184693 55.033407 66.555835 57.878199 114.252137C1022.48653 820.270992 1020.48085 825.796846 1016.612753 829.900304z" p-id="1041" fill="#bcbcbc"></path></svg>
            