<?xml version="1.0" standalone="no"?><!DOCTYPE svg PUBLIC "-//W3C//DTD SVG 1.1//EN" "http://www.w3.org/Graphics/SVG/1.1/DTD/svg11.dtd"><svg class="icon" width="200px" height="200.00px" viewBox="0 0 1024 1024" version="1.1" xmlns="http://www.w3.org/2000/svg"><path fill="#e2e2e2" d="M251.317473 75.515478l405.201257 405.755889a42.663991 42.663991 0 0 1 0 60.326884L248.437653 949.679327a42.535999 42.535999 0 0 0 28.414218 74.235345 41.640055 41.640055 0 0 0 31.20871-14.548421l0.554632 0.554632 8.852778-8.87411v0.597296l459.53385-460.088482a42.663991 42.663991 0 0 0 0-60.326884L308.209905 11.796807l-0.575964 0.575964a42.024031 42.024031 0 0 0-29.438154-12.39389 42.493335 42.493335 0 0 0-26.878314 75.536597z" /></svg>