<?xml version="1.0" standalone="no"?><!DOCTYPE svg PUBLIC "-//W3C//DTD SVG 1.1//EN" "http://www.w3.org/Graphics/SVG/1.1/DTD/svg11.dtd"><svg class="icon" width="200px" height="200.00px" viewBox="0 0 1024 1024" version="1.1" xmlns="http://www.w3.org/2000/svg"><path fill="#e2e2e2" d="M772.649462 948.483929l-405.307664-405.755635a42.663965 42.663965 0 0 1 0-60.326846l408.080822-408.080822a42.535973 42.535973 0 0 0-28.414201-74.235298 41.640029 41.640029 0 0 0-31.20869 14.548412L715.245098 14.079108l-8.852773 8.874105v-0.597296L246.858762 482.444112a42.663965 42.663965 0 0 0 0 60.326846L715.650405 1012.202561l0.575964-0.575964a42.024005 42.024005 0 0 0 29.438135 12.393882 42.493309 42.493309 0 0 0 26.984958-75.53655z" /></svg>