
              <svg 
                xmlns="http://www.w3.org/2000/svg"
                xmlns:xlink="http://www.w3.org/1999/xlink"
                width="0.635cm" height="0.635cm">
              <path fill-rule="evenodd"  fill="rgb(226, 226, 226)"
                d="M16.737,17.545 C16.347,17.959 15.714,17.959 15.323,17.545 L11.716,13.727 C8.975,15.897 5.087,15.691 2.595,13.053 C-0.138,10.159 -0.138,5.466 2.595,2.571 C5.329,-0.323 9.761,-0.323 12.495,2.571 C14.986,5.209 15.180,9.326 13.131,12.229 L16.737,16.048 C17.128,16.462 17.128,17.132 16.737,17.545 ZM11.081,4.069 C9.128,2.001 5.962,2.001 4.010,4.069 C2.057,6.136 2.057,9.488 4.010,11.556 C5.962,13.623 9.128,13.623 11.081,11.556 C13.033,9.488 13.033,6.136 11.081,4.069 Z"/>
              </svg>