<svg t="1521949608692" className="icon" style="" viewBox="0 0 1024 1024" version="1.1" xmlns="http://www.w3.org/2000/svg" p-id="1579" xmlns:xlink="http://www.w3.org/1999/xlink" width="200" height="200"><defs><style type="text/css"></style></defs><path d="M510.995 257.606m-192.522 0a192.522 192.522 0 1 0 385.044 0 192.522 192.522 0 1 0-385.044 0Z" p-id="1580" fill="#ffffff"></path><path d="M791.418 582.79c-104.54 0-189.286 84.746-189.286 189.286s84.746 189.286 189.286 189.286 189.286-84.746 189.286-189.286S895.958 582.79 791.418 582.79z m131.76 212.991H817.675v105.504c0 13.709-11.115 24.824-24.824 24.824s-24.824-11.115-24.824-24.824V795.781H662.523c-13.709 0-24.824-11.115-24.824-24.824 0-13.709 11.115-24.824 24.824-24.824h105.504V640.629c0-13.709 11.115-24.824 24.824-24.824s24.824 11.115 24.824 24.824v105.504h105.504c13.709 0 24.824 11.115 24.824 24.824 0 13.709-11.115 24.824-24.825 24.824z" p-id="1581" fill="#ffffff"></path><path d="M518.005 800.118c0-129.959 86.297-239.656 204.673-275.21-59.268-46.976-132.448-74.78-211.683-74.78-197.464 0-357.54 172.389-357.54 385.043h366.899c-1.404-11.512-2.349-23.161-2.349-35.053z" p-id="1582" fill="#ffffff"></path></svg>