<svg 
  xmlns="http://www.w3.org/2000/svg"
  xmlns:xlink="http://www.w3.org/1999/xlink"
  width="0.706cm" height="0.706cm">
<path fill-rule="evenodd"  fill="rgb(255, 255, 255)"
  d="M10.000,20.000 C4.477,20.000 -0.000,15.523 -0.000,10.000 C-0.000,4.477 4.477,-0.000 10.000,-0.000 C15.523,-0.000 20.000,4.477 20.000,10.000 C20.000,15.523 15.523,20.000 10.000,20.000 ZM10.000,1.250 C5.167,1.250 1.250,5.168 1.250,10.000 C1.250,14.832 5.167,18.750 10.000,18.750 C14.832,18.750 18.750,14.832 18.750,10.000 C18.750,5.168 14.832,1.250 10.000,1.250 ZM13.750,10.625 L10.625,10.625 L10.625,13.750 C10.625,14.095 10.345,14.375 10.000,14.375 C9.655,14.375 9.375,14.095 9.375,13.750 L9.375,10.625 L6.250,10.625 C5.905,10.625 5.625,10.345 5.625,10.000 C5.625,9.655 5.905,9.375 6.250,9.375 L9.375,9.375 L9.375,6.250 C9.375,5.905 9.655,5.625 10.000,5.625 C10.345,5.625 10.625,5.905 10.625,6.250 L10.625,9.375 L13.750,9.375 C14.095,9.375 14.375,9.655 14.375,10.000 C14.375,10.345 14.095,10.625 13.750,10.625 Z"/>
</svg>  