<svg 
  xmlns="http://www.w3.org/2000/svg"
  xmlns:xlink="http://www.w3.org/1999/xlink"
  width="0.706cm" height="0.706cm">
  <path fill-rule="evenodd"  fill="rgb(255, 255, 255)"
  d="M10.000,20.000 C4.477,20.000 -0.000,15.523 -0.000,10.000 C-0.000,4.477 4.477,-0.000 10.000,-0.000 C15.523,-0.000 20.000,4.477 20.000,10.000 C20.000,15.523 15.523,20.000 10.000,20.000 ZM10.000,1.250 C5.167,1.250 1.250,5.168 1.250,10.000 C1.250,14.832 5.167,18.750 10.000,18.750 C14.832,18.750 18.750,14.832 18.750,10.000 C18.750,5.168 14.832,1.250 10.000,1.250 ZM13.201,10.335 L10.625,7.759 L10.625,14.375 C10.625,14.720 10.345,15.000 10.000,15.000 C9.655,15.000 9.375,14.720 9.375,14.375 L9.375,7.759 L6.799,10.335 C6.555,10.579 6.159,10.579 5.915,10.335 C5.671,10.091 5.671,9.695 5.915,9.451 L9.451,5.915 C9.601,5.765 9.806,5.719 10.000,5.753 C10.194,5.719 10.399,5.765 10.549,5.915 L14.085,9.451 C14.329,9.695 14.329,10.091 14.085,10.335 C13.840,10.579 13.445,10.579 13.201,10.335 Z"/>
</svg>